<svg id="Layer_1" data-name="Layer 1" xmlns="http://www.w3.org/2000/svg" viewBox="0 0 1393.73 324.08"><defs><style>.cls-1{fill:#283618;}.cls-2{fill:#dda15e;}.cls-3{fill:#fefae0;}.cls-4{fill:#fffefd;}.cls-5{fill:#fefffb;}.cls-6{fill:#bc6c25;}</style></defs><circle class="cls-1" cx="172.99" cy="160.74" r="160.74"/><path class="cls-2" d="M566.79,140.33S548.59,85,530.38,75.91s-.71-30.81,25.2-13.31,32,75.38,25.22,82.63S580.1,160.64,566.79,140.33Z" transform="translate(-303.14 -7.96)"/><path class="cls-2" d="M381.58,140.33S399.79,85,418,75.91s.71-30.81-25.21-13.31-32,75.38-25.22,82.63S368.27,160.64,381.58,140.33Z" transform="translate(-303.14 -7.96)"/><path class="cls-3" d="M596,175.83c0,66.73-76.49,105.63-118.23,105.63-54.29,0-123.43-38.9-123.43-105.63a120.83,120.83,0,1,1,241.66,0Z" transform="translate(-303.14 -7.96)"/><path class="cls-4" d="M405.38,161.18a20.11,20.11,0,1,1,20.11,20.11A20.11,20.11,0,0,1,405.38,161.18Z" transform="translate(-303.14 -7.96)"/><path d="M408.91,161.18a16.59,16.59,0,1,1,16.59,16.57A16.58,16.58,0,0,1,408.91,161.18Z" transform="translate(-303.14 -7.96)"/><path class="cls-5" d="M408.91,152a5.64,5.64,0,1,1,5.64,5.65A5.63,5.63,0,0,1,408.91,152Z" transform="translate(-303.14 -7.96)"/><path class="cls-4" d="M508.8,161.18a20.11,20.11,0,1,1,20.11,20.11A20.11,20.11,0,0,1,508.8,161.18Z" transform="translate(-303.14 -7.96)"/><path d="M512.33,161.18a16.59,16.59,0,1,1,16.59,16.57A16.59,16.59,0,0,1,512.33,161.18Z" transform="translate(-303.14 -7.96)"/><path class="cls-5" d="M534.22,152a5.64,5.64,0,1,1,5.64,5.65A5.63,5.63,0,0,1,534.22,152Z" transform="translate(-303.14 -7.96)"/><path class="cls-6" d="M418,57a40.83,40.83,0,0,0-41.32,8.4c-19.61,17.51-44.12,21-58.12,28s-22.41,12.6-7.7,28.7,18.2,47.62,32.21,49,28.71,5.61,32.21-24.51S380.88,56.3,418,57Z" transform="translate(-303.14 -7.96)"/><path class="cls-6" d="M530.38,57a40.82,40.82,0,0,1,41.31,8.4c19.61,17.51,44.13,21,58.12,28s22.41,12.6,7.7,28.7-18.2,47.62-32.2,49-28.72,5.61-32.22-24.51S567.49,56.3,530.38,57Z" transform="translate(-303.14 -7.96)"/><path class="cls-2" d="M535.71,240.58c0,34-40.26,42.19-61.52,42.19-27.63,0-61.52-8.22-61.52-42.19a61.52,61.52,0,1,1,123,0Z" transform="translate(-303.14 -7.96)"/><path class="cls-6" d="M515.76,256.19c5.62,24.07-27.21,26.57-41.58,26.57-18.68,0-51.58-4.09-41.58-26.57,7.83-17.58,14.54-33.86,41.58-33.86C497.15,222.33,511.47,237.82,515.76,256.19Z" transform="translate(-303.14 -7.96)"/><path d="M501.24,191.35c0,6.72-27.05,17.23-27.05,17.23s-27-10.51-27-17.23,12.1-12.18,27-12.18S501.24,184.61,501.24,191.35Z" transform="translate(-303.14 -7.96)"/><path d="M475.46,208.65a1.36,1.36,0,0,0-2.72,0,97.8,97.8,0,0,0,.65,13c.23,1.71,3,1.73,2.73,0A96.15,96.15,0,0,1,475.46,208.65Z" transform="translate(-303.14 -7.96)"/><path class="cls-1" d="M758.05,211.89c5.45,14.86,13.88,29,13.88,46.07,0,11.65-4,22.3-18.33,22.3H717.43c-14.37,0-18.33-10.65-18.33-22.3,0-25,18.33-44.34,18.33-68.12,0-23.54-18.33-43.1-18.33-68.12,0-11.65,4-22.3,18.33-22.3h59.45c32.46,0,54.25,22,54.25,60.2s-21.8,59.95-48.8,59.95A40.45,40.45,0,0,1,758.05,211.89Zm-4.45-35.42A26.34,26.34,0,0,0,768,180.68c7.68,0,14.12-6.44,14.12-21.31s-6.44-21.3-17.58-21.3H753.6Z" transform="translate(-303.14 -7.96)"/><path class="cls-1" d="M891.82,280.26c-35.93,0-62.18-25.76-62.18-64.65,0-38.64,26.25-64.41,63.41-64.41,28,0,46.32,14.86,46.32,36.18,0,24.27-24,36.66-59.69,43.85a16.18,16.18,0,0,0,11.88,5.19c14.37,0,13.88-16.35,38.4-16.35,15.61,0,21.8,6.7,18.82,20.81C943.84,264.41,919.81,280.26,891.82,280.26Zm-1.24-85.21c-11.64,0-16.35,12.88-16.35,20.56a15.14,15.14,0,0,0,.75,4.46C886.61,206.19,901.23,195.05,890.58,195.05Z" transform="translate(-303.14 -7.96)"/><path class="cls-1" d="M1001.06,235.43c4.7,1,4.7-15.37,25.76-15.37,16.6,0,26.5,10.4,23,28.24-3.21,17.83-17.33,31.95-46.56,31.95-40.89,0-43.11-28.23-43.11-56,0-14.13-.74-25.52-1.49-35.18a19.31,19.31,0,0,1-3.46-35.67c-.26-4-.5-7.44-.5-11.15,0-16.84,3.72-27.51,18.34-27.51h18.08c14.36,0,18.33,10.66,18.33,25.52a89.75,89.75,0,0,1-1,12.13,39.8,39.8,0,0,1,9.65-1.24,19.32,19.32,0,1,1,0,38.64c-6.93,0-11.88-2-17.58-3.71-.75,5.2-1.49,11.15-2,18.33C998.09,215.36,996.36,234.18,1001.06,235.43Z" transform="translate(-303.14 -7.96)"/><path class="cls-1" d="M1104.61,151.2c31.71,0,54.74,14.37,59.69,36.92,3.46,15.11-4,22.29-23.29,22.54-8.18.26-23.29,2-26.27-11.39-1.72-8.18-7.43-10.9-11.15-10.9-3,0-9.91,1.73-9.91,7.44,0,17.83,71.84,10.64,71.84,51.27,0,22.29-21.56,35.67-51.78,35.67-31.21,0-54.25-14.36-59.46-36.91-3.22-15.12,4.21-22.29,23.54-22.54,7.92-.5,23.53-2,26,11.65,2,8.18,7.68,10.89,11.15,10.89,3.23,0,10.16-2,10.16-6.94,0-16.1-71.83-14.62-71.83-53.51C1053.33,164.83,1073.64,151.2,1104.61,151.2Z" transform="translate(-303.14 -7.96)"/><path class="cls-1" d="M1366.18,224c0,34.19-21.8,56.23-75.55,56.23h-38.15c-14.36,0-18.33-10.65-18.33-22.3,0-25,18.33-44.34,18.33-68.12,0-23.54-18.33-43.1-18.33-68.12,0-11.65,4-22.3,18.33-22.3h51.78c32.44,0,54.25,22,54.25,53.76,0,11.65-3,22-9.41,30.23C1361,193.31,1366.18,207.19,1366.18,224Zm-74.57-56.23h3.72c7.44,0,14.13-6.44,14.13-14.86s-6.69-14.86-17.59-14.86h-3.23Zm3.23,73.82h4.7c11.16,0,17.6-6.69,17.6-17.59s-6.44-17.34-17.6-17.34h-10.9Z" transform="translate(-303.14 -7.96)"/><path class="cls-1" d="M1430.83,257.22c0,16.84-6.2,23-15.6,23H1387c-14.37,0-18.34-10.65-18.34-22.79,0-24.53,15.86-44.09,15.86-68.86,0-22.54-13.37-41.86-13.37-65.64,0-12.89,4-23.54,18.34-23.54h15.59c12.89,0,15.6,10.65,15.6,24.53v42.37C1420.66,219.08,1430.83,235.68,1430.83,257.22Z" transform="translate(-303.14 -7.96)"/><path class="cls-1" d="M1500.44,151.2c39.88,0,66.15,25.77,66.15,64.41,0,38.89-26.27,64.65-66.15,64.65s-66.15-25.76-66.15-64.65C1434.29,177,1460.56,151.2,1500.44,151.2Zm.24,77.29c16.84,0,21.3-5,21.3-12.88,0-7.68-4.46-12.89-21.3-12.89-17.09,0-21.8,5.2-21.8,12.89C1478.88,223.54,1483.6,228.49,1500.68,228.49Z" transform="translate(-303.14 -7.96)"/><path class="cls-1" d="M1618.83,280.26c-27,0-48.8-21.79-48.8-64.41,0-42.85,21.8-64.66,52.28-64.66a50.58,50.58,0,0,1,25.51,6.44c2.49-4.21,7.19-6.44,13.13-6.44h17.59c14.37,0,18.33,10.41,18.33,23.29,0,23.78-13.12,43.35-13.12,95.62,0,33.69,5.45,61.94-46.07,61.94-36.67,0-53.52-14.37-56.74-26.51-3.46-13.12,8.93-23.53,25.77-23.53,21,0,21,16.36,30.46,15.36,5.71-.49,7.68-6.68,8.69-27.25C1638.41,276.05,1630.73,280.26,1618.83,280.26Zm27.26-42.11c0-12.88-.26-28.74-.5-47.81a35.46,35.46,0,0,0-7.18-.49c-12.89,0-19.32,6.44-19.32,25.76s6.43,26,13.86,26A25,25,0,0,0,1646.09,238.15Z" transform="translate(-303.14 -7.96)"/></svg>